<?xml version="1.0" encoding="utf-8" ?>
<svg xmlns="http://www.w3.org/2000/svg" xmlns:xlink="http://www.w3.org/1999/xlink" width="50" height="50">
	<path fill="#01C676" transform="matrix(0.5 0 0 0.5 -6.10352e-05 0)" d="M63.7471 74.3218C64.3648 74.2738 64.9931 74.2244 65.6128 74.2389C67.5037 74.2829 69.405 75.0878 70.71 76.466C72.538 78.3965 72.811 81.3605 72.7403 83.905C72.6627 86.7001 71.6015 89.0575 69.5665 90.9748C67.225 93.1808 63.7935 94.9136 60.6399 95.5304C56.2185 96.3952 48.1172 95.81 43.2702 95.807C32.9248 95.8007 22.5246 96.074 12.1876 95.7414Q11.9948 95.7435 11.8024 95.7319C9.03241 95.5565 7.01655 93.0585 5.31699 91.1459C5.15642 89.3594 5.17692 87.6254 5.23983 85.8373C15.8057 90.8535 27.6851 86.3876 37.9874 82.8456L53.3662 77.5197C56.6954 76.3583 60.2501 74.8025 63.7471 74.3218Z"/>
	<path fill="#01C676" transform="matrix(0.5 0 0 0.5 -6.10352e-05 0)" d="M11.5417 4.10271C20.0057 3.7561 28.5962 4.06397 37.073 4.05663C43.0304 4.05147 53.4773 3.45813 58.9813 4.60587C64.9754 5.85579 71.0099 8.80225 75.9395 12.3431C70.9253 12.5395 65.7228 14.0205 60.8069 15.017C46.3611 17.352 32.1954 24.846 16.9292 22.6467C11.7184 21.896 8.46161 19.8833 5.33173 15.7104C5.12883 13.393 5.23812 11.0622 5.38668 8.74609C6.35733 7.68735 6.90138 6.30594 7.86285 5.25631C8.92363 4.09825 10.0817 4.16512 11.5417 4.10271Z"/>
	<path fill="#01C676" transform="matrix(0.5 0 0 0.5 -6.10352e-05 0)" d="M77.6706 18.8505C78.2183 18.7672 78.8054 18.7619 79.3593 18.7363C82.1691 18.6066 84.3553 19.8368 86.3766 21.6902C91.5814 26.4626 95.5973 34.7038 95.9079 41.7798C94.6274 40.3627 93.3285 39.0058 91.7479 37.918C80.425 30.1253 62.2899 35.7043 50.7585 40.4779C46.7865 42.1222 43.0076 44.2551 38.9979 45.7965C34.7456 47.4311 30.5464 48.6037 26.0713 49.428C24.0656 49.6921 22.05 49.9475 20.024 49.9586C13.7316 49.9933 9.70868 48.057 5.32569 43.7193C4.79239 37.994 5.09262 32.0612 5.20816 26.3134C15.3658 33.3882 38.6489 28.3312 49.7811 25.5472C59.7742 23.048 67.0375 19.9726 77.6706 18.8505Z"/>
	<defs>
		<linearGradient id="gradient_0" gradientUnits="userSpaceOnUse" x1="50.097878" y1="82.542763" x2="50.354332" y2="43.063919">
			<stop offset="0" stop-color="#02AA65"/>
			<stop offset="1" stop-color="#02C877"/>
		</linearGradient>
	</defs>
	<path fill="url(#gradient_0)" transform="matrix(0.5 0 0 0.5 -6.10352e-05 0)" d="M77.0087 42.8484C83.3528 42.9936 88.4804 44.0731 92.4581 49.3111C93.5526 50.7524 94.2674 52.4395 95.5674 53.7161C95.7656 55.9233 95.9455 58.231 95.6467 60.4352C94.511 68.8135 87.1377 79.8153 80.5292 84.8661C82.0679 80.8685 82.5128 76.7829 80.9427 72.6881C79.8087 69.731 77.6982 67.2724 74.7768 65.9829C67.1706 62.6254 58.4632 66.8196 51.3146 69.5282L38.3116 74.499C31.7928 77.187 23.0249 79.8914 15.925 79.161C11.3111 78.6862 8.23579 76.7841 5.3552 73.2354C4.82823 67.6385 5.12046 61.8774 5.16378 56.2615C16.7791 60.1436 27.364 59.8315 38.6958 55.3062C41.7267 54.0959 44.6107 52.4882 47.6026 51.1781C57.1886 46.9803 66.4993 43.5279 77.0087 42.8484Z"/>
</svg>
